<svg xmlns="http://www.w3.org/2000/svg" version="1.1" width="1582" height="1240" preserveAspectRatio="none" id="SVG" style="stroke-width: 2px; font-size: 11px; font-family: sans-serif; shape-rendering: crispEdges;" viewBox="-20 -50 1931.0927734375 1313"><rect id="backgroundRect" x="-20" y="-50" width="1931.0927734375" height="1313" fill="white"></rect><path d="M 1497.4506717748766 1240 H 1475.744219830391 V 1227.0833333333335" fill="none" stroke-opacity="1" class="treeEdge trait_U291dGhlcm4=" vector-effect="non-scaling-stroke" id="node#26" stroke="#009900"></path><path d="M 1484.0301434851467 1214.1666666666665 H 1475.744219830391 V 1227.0833333333335" fill="none" stroke-opacity="1" class="treeEdge trait_U291dGhlcm4=" vector-effect="non-scaling-stroke" id="node#27" stroke="#009900"></path><path d="M 1512.2132528935574 1188.3333333333335 H 1477.9725533801925 V 1175.4166666666665" fill="none" stroke-opacity="1" class="treeEdge trait_U291dGhlcm4=" vector-effect="non-scaling-stroke" id="node#29" stroke="#009900"></path><path d="M 1489.3983548010603 1162.5 H 1477.9725533801925 V 1175.4166666666665" fill="none" stroke-opacity="1" class="treeEdge trait_U291dGhlcm4=" vector-effect="non-scaling-stroke" id="node#30" stroke="#009900"></path><path d="M 1501.4768302617285 1136.6666666666665 H 1461.5526822070974 V 1168.9583333333335" fill="none" stroke-opacity="1" class="treeEdge trait_Q2FudGVyYnVyeQ==" vector-effect="non-scaling-stroke" id="node#31" stroke="#e500b7"></path><path d="M 1497.4506717748766 1110.8333333333335 H 1451.987546222206 V 1139.8958333333335" fill="none" stroke-opacity="1" class="treeEdge trait_SGF3a2VzLUJheQ==" vector-effect="non-scaling-stroke" id="node#22" stroke="#0000e5"></path><path d="M 1500.1347774327778 1085 H 1448.5555395690294 V 1072.0833333333333" fill="none" stroke-opacity="1" class="treeEdge trait_V2Fpa2F0bw==" vector-effect="non-scaling-stroke" id="node#33" stroke="#997a00"></path><path d="M 1509.5291472355445 1059.1666666666665 H 1448.5555395690294 V 1072.0833333333333" fill="none" stroke-opacity="1" class="treeEdge trait_Q2FudGVyYnVyeQ==" vector-effect="non-scaling-stroke" id="node#34" stroke="#e500b7"></path><path d="M 1528.3178868411896 1033.3333333333335 H 1474.59457312386 V 1020.4166666666667" fill="none" stroke-opacity="1" class="treeEdge trait_QmF5LW9mLVBsZW50eQ==" vector-effect="non-scaling-stroke" id="node#36" stroke="#e5005b"></path><path d="M 1480.0039849981824 1007.5 H 1474.59457312386 V 1020.4166666666667" fill="none" stroke-opacity="1" class="treeEdge trait_Q2FwaXRhbC1hbmQtQ29hc3Q=" vector-effect="non-scaling-stroke" id="node#37" stroke="#b700e5"></path><path d="M 1453.1629284188207 981.6666666666666 H 1410.9800923135651 V 1022.4348958333333" fill="none" stroke-opacity="1" class="treeEdge trait_Q2FudGVyYnVyeQ==" vector-effect="non-scaling-stroke" id="node#38" stroke="#e500b7"></path><path d="M 1489.3983548010608 955.8333333333334 H 1474.6072208688677 V 942.9166666666667" fill="none" stroke-opacity="1" class="treeEdge trait_Q2FudGVyYnVyeQ==" vector-effect="non-scaling-stroke" id="node#42" stroke="#e500b7"></path><path d="M 1496.1086189459259 930 H 1474.6072208688677 V 942.9166666666667" fill="none" stroke-opacity="1" class="treeEdge trait_Q2FudGVyYnVyeQ==" vector-effect="non-scaling-stroke" id="node#43" stroke="#e500b7"></path><path d="M 1547.106626446723 904.1666666666667 H 1463.3400544545698 V 923.5416666666667" fill="none" stroke-opacity="1" class="treeEdge trait_U291dGhlcm4=" vector-effect="non-scaling-stroke" id="node#44" stroke="#009900"></path><path d="M 1459.8731925636982 878.3333333333333 H 1444.567871145108 V 865.4166666666666" fill="none" stroke-opacity="1" class="treeEdge trait_TmVsc29uLU1hcmxib3JvdWdo" vector-effect="non-scaling-stroke" id="node#46" stroke="#00993d"></path><path d="M 1480.0039849981824 852.5 H 1444.567871145108 V 865.4166666666666" fill="none" stroke-opacity="1" class="treeEdge trait_TmVsc29uLU1hcmxib3JvdWdo" vector-effect="non-scaling-stroke" id="node#47" stroke="#00993d"></path><path d="M 1506.8450415776433 826.6666666666667 H 1494.2991167072637 V 813.75" fill="none" stroke-opacity="1" class="treeEdge trait_SGF3a2VzLUJheQ==" vector-effect="non-scaling-stroke" id="node#55" stroke="#0000e5"></path><path d="M 1529.6599396701404 800.8333333333333 H 1494.2991167072637 V 813.75" fill="none" stroke-opacity="1" class="treeEdge trait_SGF3a2VzLUJheQ==" vector-effect="non-scaling-stroke" id="node#56" stroke="#0000e5"></path><path d="M 1565.8953660523678 775 H 1489.9380312463732 V 794.375" fill="none" stroke-opacity="1" class="treeEdge trait_TGFrZXM=" vector-effect="non-scaling-stroke" id="node#57" stroke="#00b7e5"></path><path d="M 1493.424513287913 749.1666666666667 H 1489.8136690672022 V 736.25" fill="none" stroke-opacity="1" class="treeEdge trait_V2Fpa2F0bw==" vector-effect="non-scaling-stroke" id="node#59" stroke="#997a00"></path><path d="M 1582 723.3333333333333 H 1489.8136690672022 V 736.25" fill="none" stroke-opacity="1" class="treeEdge trait_TWlkQ2VudHJhbA==" vector-effect="non-scaling-stroke" id="node#60" stroke="#00997a"></path><path d="M 1488.0563019721098 697.5 H 1472.027624995573 V 731.40625" fill="none" stroke-opacity="1" class="treeEdge trait_V2Fpa2F0bw==" vector-effect="non-scaling-stroke" id="node#61" stroke="#997a00"></path><path d="M 1521.6076226963244 671.6666666666667 H 1487.305284078735 V 658.75" fill="none" stroke-opacity="1" class="treeEdge trait_Q291bnRpZXMtTWFudWthdQ==" vector-effect="non-scaling-stroke" id="node#65" stroke="#5b00e5"></path><path d="M 1537.7122566439564 645.8333333333333 H 1487.305284078735 V 658.75" fill="none" stroke-opacity="1" class="treeEdge trait_Q2FwaXRhbC1hbmQtQ29hc3Q=" vector-effect="non-scaling-stroke" id="node#66" stroke="#b700e5"></path><path d="M 1535.0281509860552 620 H 1474.6813945339077 V 607.0833333333333" fill="none" stroke-opacity="1" class="treeEdge trait_Q291bnRpZXMtTWFudWthdQ==" vector-effect="non-scaling-stroke" id="node#68" stroke="#5b00e5"></path><path d="M 1488.0563019721098 594.1666666666666 H 1474.6813945339077 V 607.0833333333333" fill="none" stroke-opacity="1" class="treeEdge trait_QmF5LW9mLVBsZW50eQ==" vector-effect="non-scaling-stroke" id="node#69" stroke="#e5005b"></path><path d="M 1526.9758340122391 568.3333333333334 H 1468.0320332728124 V 600.625" fill="none" stroke-opacity="1" class="treeEdge trait_SHV0dC1WYWxsZXk=" vector-effect="non-scaling-stroke" id="node#70" stroke="#005be5"></path><path d="M 1547.106626446723 542.5 H 1491.1118296478207 V 529.5833333333333" fill="none" stroke-opacity="1" class="treeEdge trait_Q291bnRpZXMtTWFudWthdQ==" vector-effect="non-scaling-stroke" id="node#72" stroke="#5b00e5"></path><path d="M 1531.0019924990913 516.6666666666666 H 1491.1118296478207 V 529.5833333333333" fill="none" stroke-opacity="1" class="treeEdge trait_QXVja2xhbmQ=" vector-effect="non-scaling-stroke" id="node#73" stroke="#e50000"></path><path d="M 1535.0281509860552 490.83333333333337 H 1403.35695497867 V 477.91666666666674" fill="none" stroke-opacity="1" class="treeEdge trait_V2hhbmdhbnVp" vector-effect="non-scaling-stroke" id="node#75" stroke="#e55b00"></path><path d="M 1532.344045328042 465 H 1403.35695497867 V 477.91666666666674" fill="none" stroke-opacity="1" class="treeEdge trait_QXVja2xhbmQ=" vector-effect="non-scaling-stroke" id="node#76" stroke="#e50000"></path><path d="M 1469.2675623664509 439.16666666666663 H 1131.1115255787242 V 593.662109375" fill="none" stroke-opacity="1" class="treeEdge trait_QXVja2xhbmQ=" vector-effect="non-scaling-stroke" id="node#77" stroke="#e50000"></path><path d="M 1506.8450415776433 413.33333333333337 H 1421.5338730718179 V 400.41666666666674" fill="none" stroke-opacity="1" class="treeEdge trait_Q2FwaXRhbC1hbmQtQ29hc3Q=" vector-effect="non-scaling-stroke" id="node#82" stroke="#b700e5"></path><path d="M 1516.2394113804103 387.5 H 1421.5338730718179 V 400.41666666666674" fill="none" stroke-opacity="1" class="treeEdge trait_TGFrZXM=" vector-effect="non-scaling-stroke" id="node#83" stroke="#00b7e5"></path><path d="M 1450.4788227609195 361.66666666666663 H 1404.2687034141654 V 381.04166666666674" fill="none" stroke-opacity="1" class="treeEdge trait_Q2FwaXRhbC1hbmQtQ29hc3Q=" vector-effect="non-scaling-stroke" id="node#84" stroke="#b700e5"></path><path d="M 1500.1347774327783 335.83333333333337 H 1370.8681666776347 V 358.4375" fill="none" stroke-opacity="1" class="treeEdge trait_SHV0dC1WYWxsZXk=" vector-effect="non-scaling-stroke" id="node#85" stroke="#005be5"></path><path d="M 1520.2655698673739 310 H 1472.2847522937655 V 297.08333333333326" fill="none" stroke-opacity="1" class="treeEdge trait_Q2FudGVyYnVyeQ==" vector-effect="non-scaling-stroke" id="node#91" stroke="#e500b7"></path><path d="M 1553.8168905915886 284.16666666666663 H 1472.2847522937655 V 297.08333333333326" fill="none" stroke-opacity="1" class="treeEdge trait_V2hhbmdhbnVp" vector-effect="non-scaling-stroke" id="node#92" stroke="#e55b00"></path><path d="M 1494.7665661168637 258.33333333333337 H 1440.1313462590156 V 277.70833333333326" fill="none" stroke-opacity="1" class="treeEdge trait_V2Fpa2F0bw==" vector-effect="non-scaling-stroke" id="node#89" stroke="#997a00"></path><path d="M 1501.4768302617292 232.5 H 1425.4509016827599 V 255.10416666666663" fill="none" stroke-opacity="1" class="treeEdge trait_Q291bnRpZXMtTWFudWthdQ==" vector-effect="non-scaling-stroke" id="node#87" stroke="#5b00e5"></path><path d="M 1532.344045328042 206.66666666666663 H 1472.5299934575899 V 193.75" fill="none" stroke-opacity="1" class="treeEdge trait_TWlkQ2VudHJhbA==" vector-effect="non-scaling-stroke" id="node#7" stroke="#00997a"></path><path d="M 1522.9496755252753 180.83333333333337 H 1472.5299934575899 V 193.75" fill="none" stroke-opacity="1" class="treeEdge trait_QXVja2xhbmQ=" vector-effect="non-scaling-stroke" id="node#8" stroke="#e50000"></path><path d="M 1493.424513287913 155 H 1457.4828966659368 V 174.375" fill="none" stroke-opacity="1" class="treeEdge trait_VGFpcmF3aGl0aS0oR2lzYm9ybmUp" vector-effect="non-scaling-stroke" id="node#5" stroke="#3d9900"></path><path d="M 1500.1347774327783 129.16666666666663 H 1469.5637014452739 V 116.25" fill="none" stroke-opacity="1" class="treeEdge trait_V2Fpa2F0bw==" vector-effect="non-scaling-stroke" id="node#11" stroke="#997a00"></path><path d="M 1555.1589434205391 103.33333333333339 H 1469.5637014452739 V 116.25" fill="none" stroke-opacity="1" class="treeEdge trait_QmF5LW9mLVBsZW50eQ==" vector-effect="non-scaling-stroke" id="node#12" stroke="#e5005b"></path><path d="M 1563.2112603943551 77.5 H 1462.4019474363336 V 96.875" fill="none" stroke-opacity="1" class="treeEdge trait_Q291bnRpZXMtTWFudWthdQ==" vector-effect="non-scaling-stroke" id="node#13" stroke="#5b00e5"></path><path d="M 1453.1629284188134 51.66666666666662 H 1392.6592580778447 V 38.75" fill="none" stroke-opacity="1" class="treeEdge trait_VGFyYW5ha2k=" vector-effect="non-scaling-stroke" id="node#94" stroke="#7a9900"></path><path d="M 1488.0563019721098 25.83333333333338 H 1392.6592580778447 V 38.75" fill="none" stroke-opacity="1" class="treeEdge trait_VGFyYW5ha2k=" vector-effect="non-scaling-stroke" id="node#95" stroke="#7a9900"></path><path d="M 1447.7947171029189 0 H 15.663366336633677 V 82.91768391927074" fill="none" stroke-opacity="1" class="treeEdge trait_Q2FudGVyYnVyeQ==" vector-effect="non-scaling-stroke" id="node#96" stroke="#e500b7"></path><path d="M 1475.744219830391 1227.0833333333335 H 1467.7966981449183 V 1201.25" fill="none" stroke-opacity="1" class="treeEdge trait_U291dGhlcm4=" vector-effect="non-scaling-stroke" id="node#25" stroke="#009900"></path><path d="M 1477.9725533801925 1175.4166666666665 H 1467.7966981449183 V 1201.25" fill="none" stroke-opacity="1" class="treeEdge trait_U291dGhlcm4=" vector-effect="non-scaling-stroke" id="node#28" stroke="#009900"></path><path d="M 1467.7966981449183 1201.25 H 1461.5526822070974 V 1168.9583333333335" fill="none" stroke-opacity="1" class="treeEdge trait_U291dGhlcm4=" vector-effect="non-scaling-stroke" id="node#24" stroke="#009900"></path><path d="M 1461.5526822070974 1168.9583333333335 H 1451.987546222206 V 1139.8958333333335" fill="none" stroke-opacity="1" class="treeEdge trait_U291dGhlcm4=" vector-effect="non-scaling-stroke" id="node#23" stroke="#009900"></path><path d="M 1451.987546222206 1139.8958333333335 H 1439.41266011867 V 1105.9895833333333" fill="none" stroke-opacity="1" class="treeEdge trait_U291dGhlcm4=" vector-effect="non-scaling-stroke" id="node#21" stroke="#009900"></path><path d="M 1448.5555395690294 1072.0833333333333 H 1439.41266011867 V 1105.9895833333333" fill="none" stroke-opacity="1" class="treeEdge trait_U291dGhlcm4=" vector-effect="non-scaling-stroke" id="node#32" stroke="#009900"></path><path d="M 1439.41266011867 1105.9895833333333 H 1421.1456876107302 V 1063.203125" fill="none" stroke-opacity="1" class="treeEdge trait_U291dGhlcm4=" vector-effect="non-scaling-stroke" id="node#20" stroke="#009900"></path><path d="M 1474.59457312386 1020.4166666666667 H 1421.1456876107302 V 1063.203125" fill="none" stroke-opacity="1" class="treeEdge trait_Q2FwaXRhbC1hbmQtQ29hc3Q=" vector-effect="non-scaling-stroke" id="node#35" stroke="#b700e5"></path><path d="M 1421.1456876107302 1063.203125 H 1410.9800923135651 V 1022.4348958333333" fill="none" stroke-opacity="1" class="treeEdge trait_Q2FudGVyYnVyeQ==" vector-effect="non-scaling-stroke" id="node#19" stroke="#e500b7"></path><path d="M 1410.9800923135651 1022.4348958333333 H 1389.6651097645029 V 958.45703125" fill="none" stroke-opacity="1" class="treeEdge trait_Q2FudGVyYnVyeQ==" vector-effect="non-scaling-stroke" id="node#18" stroke="#e500b7"></path><path d="M 1474.6072208688677 942.9166666666667 H 1463.3400544545698 V 923.5416666666667" fill="none" stroke-opacity="1" class="treeEdge trait_Q2FudGVyYnVyeQ==" vector-effect="non-scaling-stroke" id="node#41" stroke="#e500b7"></path><path d="M 1463.3400544545698 923.5416666666667 H 1403.873609481537 V 894.4791666666666" fill="none" stroke-opacity="1" class="treeEdge trait_Q2FudGVyYnVyeQ==" vector-effect="non-scaling-stroke" id="node#40" stroke="#e500b7"></path><path d="M 1444.567871145108 865.4166666666666 H 1403.873609481537 V 894.4791666666666" fill="none" stroke-opacity="1" class="treeEdge trait_TmVsc29uLU1hcmxib3JvdWdo" vector-effect="non-scaling-stroke" id="node#45" stroke="#00993d"></path><path d="M 1403.873609481537 894.4791666666666 H 1389.6651097645029 V 958.45703125" fill="none" stroke-opacity="1" class="treeEdge trait_TmVsc29uLU1hcmxib3JvdWdo" vector-effect="non-scaling-stroke" id="node#39" stroke="#00993d"></path><path d="M 1389.6651097645029 958.45703125 H 1147.6774894364535 V 748.1575520833334" fill="none" stroke-opacity="1" class="treeEdge trait_Q2FudGVyYnVyeQ==" vector-effect="non-scaling-stroke" id="node#17" stroke="#e500b7"></path><path d="M 1494.2991167072637 813.75 H 1489.9380312463732 V 794.375" fill="none" stroke-opacity="1" class="treeEdge trait_SGF3a2VzLUJheQ==" vector-effect="non-scaling-stroke" id="node#54" stroke="#0000e5"></path><path d="M 1489.9380312463732 794.375 H 1478.1139064979502 V 765.3125" fill="none" stroke-opacity="1" class="treeEdge trait_SGF3a2VzLUJheQ==" vector-effect="non-scaling-stroke" id="node#53" stroke="#0000e5"></path><path d="M 1489.8136690672022 736.25 H 1478.1139064979502 V 765.3125" fill="none" stroke-opacity="1" class="treeEdge trait_V2Fpa2F0bw==" vector-effect="non-scaling-stroke" id="node#58" stroke="#997a00"></path><path d="M 1478.1139064979502 765.3125 H 1472.027624995573 V 731.40625" fill="none" stroke-opacity="1" class="treeEdge trait_V2Fpa2F0bw==" vector-effect="non-scaling-stroke" id="node#52" stroke="#997a00"></path><path d="M 1472.027624995573 731.40625 H 1455.3547228442806 V 666.015625" fill="none" stroke-opacity="1" class="treeEdge trait_V2Fpa2F0bw==" vector-effect="non-scaling-stroke" id="node#51" stroke="#997a00"></path><path d="M 1487.305284078735 658.75 H 1470.7725009546202 V 632.9166666666666" fill="none" stroke-opacity="1" class="treeEdge trait_Q291bnRpZXMtTWFudWthdQ==" vector-effect="non-scaling-stroke" id="node#64" stroke="#5b00e5"></path><path d="M 1474.6813945339077 607.0833333333333 H 1470.7725009546202 V 632.9166666666666" fill="none" stroke-opacity="1" class="treeEdge trait_QmF5LW9mLVBsZW50eQ==" vector-effect="non-scaling-stroke" id="node#67" stroke="#e5005b"></path><path d="M 1470.7725009546202 632.9166666666666 H 1468.0320332728124 V 600.625" fill="none" stroke-opacity="1" class="treeEdge trait_QmF5LW9mLVBsZW50eQ==" vector-effect="non-scaling-stroke" id="node#63" stroke="#e5005b"></path><path d="M 1468.0320332728124 600.625 H 1455.3547228442806 V 666.015625" fill="none" stroke-opacity="1" class="treeEdge trait_QmF5LW9mLVBsZW50eQ==" vector-effect="non-scaling-stroke" id="node#62" stroke="#e5005b"></path><path d="M 1455.3547228442806 666.015625 H 1432.686024246018 V 597.7994791666666" fill="none" stroke-opacity="1" class="treeEdge trait_V2Fpa2F0bw==" vector-effect="non-scaling-stroke" id="node#50" stroke="#997a00"></path><path d="M 1491.1118296478207 529.5833333333333 H 1432.686024246018 V 597.7994791666666" fill="none" stroke-opacity="1" class="treeEdge trait_QXVja2xhbmQ=" vector-effect="non-scaling-stroke" id="node#71" stroke="#e50000"></path><path d="M 1432.686024246018 597.7994791666666 H 1229.9340663586363 V 537.8580729166667" fill="none" stroke-opacity="1" class="treeEdge trait_V2Fpa2F0bw==" vector-effect="non-scaling-stroke" id="node#49" stroke="#997a00"></path><path d="M 1403.35695497867 477.91666666666674 H 1229.9340663586363 V 537.8580729166667" fill="none" stroke-opacity="1" class="treeEdge trait_V2hhbmdhbnVp" vector-effect="non-scaling-stroke" id="node#74" stroke="#e55b00"></path><path d="M 1229.9340663586363 537.8580729166667 H 1147.6774894364535 V 748.1575520833334" fill="none" stroke-opacity="1" class="treeEdge trait_QmF5LW9mLVBsZW50eQ==" vector-effect="non-scaling-stroke" id="node#48" stroke="#e5005b"></path><path d="M 1147.6774894364535 748.1575520833334 H 1131.1115255787242 V 593.662109375" fill="none" stroke-opacity="1" class="treeEdge trait_Q291bnRpZXMtTWFudWthdQ==" vector-effect="non-scaling-stroke" id="node#16" stroke="#5b00e5"></path><path d="M 1131.1115255787242 593.662109375 H 677.8713672189883 V 450.21647135416663" fill="none" stroke-opacity="1" class="treeEdge trait_Q291bnRpZXMtTWFudWthdQ==" vector-effect="non-scaling-stroke" id="node#15" stroke="#5b00e5"></path><path d="M 1421.5338730718179 400.41666666666674 H 1404.2687034141654 V 381.04166666666674" fill="none" stroke-opacity="1" class="treeEdge trait_Q2FwaXRhbC1hbmQtQ29hc3Q=" vector-effect="non-scaling-stroke" id="node#81" stroke="#b700e5"></path><path d="M 1404.2687034141654 381.04166666666674 H 1370.8681666776347 V 358.4375" fill="none" stroke-opacity="1" class="treeEdge trait_Q2FwaXRhbC1hbmQtQ29hc3Q=" vector-effect="non-scaling-stroke" id="node#80" stroke="#b700e5"></path><path d="M 1370.8681666776347 358.4375 H 1091.8295081356728 V 306.77083333333326" fill="none" stroke-opacity="1" class="treeEdge trait_Q2FwaXRhbC1hbmQtQ29hc3Q=" vector-effect="non-scaling-stroke" id="node#79" stroke="#b700e5"></path><path d="M 1472.2847522937655 297.08333333333326 H 1440.1313462590156 V 277.70833333333326" fill="none" stroke-opacity="1" class="treeEdge trait_V2hhbmdhbnVp" vector-effect="non-scaling-stroke" id="node#90" stroke="#e55b00"></path><path d="M 1440.1313462590156 277.70833333333326 H 1425.4509016827599 V 255.10416666666663" fill="none" stroke-opacity="1" class="treeEdge trait_V2Fpa2F0bw==" vector-effect="non-scaling-stroke" id="node#88" stroke="#997a00"></path><path d="M 1425.4509016827599 255.10416666666663 H 1091.8295081356728 V 306.77083333333326" fill="none" stroke-opacity="1" class="treeEdge trait_Q291bnRpZXMtTWFudWthdQ==" vector-effect="non-scaling-stroke" id="node#86" stroke="#5b00e5"></path><path d="M 1091.8295081356728 306.77083333333326 H 677.8713672189883 V 450.21647135416663" fill="none" stroke-opacity="1" class="treeEdge trait_SHV0dC1WYWxsZXk=" vector-effect="non-scaling-stroke" id="node#78" stroke="#005be5"></path><path d="M 677.8713672189883 450.21647135416663 H 507.76025087894976 V 292.92073567708326" fill="none" stroke-opacity="1" class="treeEdge trait_VGFpcmF3aGl0aS0oR2lzYm9ybmUp" vector-effect="non-scaling-stroke" id="node#14" stroke="#3d9900"></path><path d="M 1472.5299934575899 193.75 H 1457.4828966659368 V 174.375" fill="none" stroke-opacity="1" class="treeEdge trait_VGFpcmF3aGl0aS0oR2lzYm9ybmUp" vector-effect="non-scaling-stroke" id="node#6" stroke="#3d9900"></path><path d="M 1457.4828966659368 174.375 H 1377.9590318906337 V 135.625" fill="none" stroke-opacity="1" class="treeEdge trait_VGFpcmF3aGl0aS0oR2lzYm9ybmUp" vector-effect="non-scaling-stroke" id="node#4" stroke="#3d9900"></path><path d="M 1469.5637014452739 116.25 H 1462.4019474363336 V 96.875" fill="none" stroke-opacity="1" class="treeEdge trait_V2Fpa2F0bw==" vector-effect="non-scaling-stroke" id="node#10" stroke="#997a00"></path><path d="M 1462.4019474363336 96.875 H 1377.9590318906337 V 135.625" fill="none" stroke-opacity="1" class="treeEdge trait_V2Fpa2F0bw==" vector-effect="non-scaling-stroke" id="node#9" stroke="#997a00"></path><path d="M 1377.9590318906337 135.625 H 507.76025087894976 V 292.92073567708326" fill="none" stroke-opacity="1" class="treeEdge trait_VGFpcmF3aGl0aS0oR2lzYm9ybmUp" vector-effect="non-scaling-stroke" id="node#3" stroke="#3d9900"></path><path d="M 507.76025087894976 292.92073567708326 H 243.9185105945704 V 165.83536783854163" fill="none" stroke-opacity="1" class="treeEdge trait_Q291bnRpZXMtTWFudWthdQ==" vector-effect="non-scaling-stroke" id="node#2" stroke="#5b00e5"></path><path d="M 1392.6592580778447 38.75 H 243.9185105945704 V 165.83536783854163" fill="none" stroke-opacity="1" class="treeEdge trait_VGFyYW5ha2k=" vector-effect="non-scaling-stroke" id="node#93" stroke="#7a9900"></path><path d="M 243.9185105945704 165.83536783854163 H 15.663366336633677 V 82.91768391927074" fill="none" stroke-opacity="1" class="treeEdge trait_TGFrZXM=" vector-effect="non-scaling-stroke" id="node#1" stroke="#00b7e5"></path><path d="M 15.663366336633677 82.91768391927074 H 0 V 82.91768391927074" fill="none" stroke-opacity="1" class="treeEdge trait_TmVsc29uLU1hcmxib3JvdWdo" vector-effect="non-scaling-stroke" id="node#0" stroke="#00993d"></path><text x="1497.4506717748766" y="1240" transform="matrix(1.22067 0 0 1.05887 0 0) matrix(1 0 0 1 -270.701 -68.9414)">H12ESR00381_2012.558904109589_Southern</text><text x="1484.0301434851467" y="1214.1666666666665" transform="matrix(1.22067 0 0 1.05887 0 0) matrix(1 0 0 1 -268.275 -67.5051)">VIR12645_2012.531506849315_Southern</text><text x="1512.2132528935574" y="1188.3333333333335" transform="matrix(1.22067 0 0 1.05887 0 0) matrix(1 0 0 1 -273.37 -66.0688)">H12ESR00947_2012.5890410958905_Southern</text><text x="1489.3983548010603" y="1162.5" transform="matrix(1.22067 0 0 1.05887 0 0) matrix(1 0 0 1 -269.246 -64.6325)">VIR12688_2012.5424657534247_Southern</text><text x="1501.4768302617285" y="1136.6666666666665" transform="matrix(1.22067 0 0 1.05887 0 0) matrix(1 0 0 1 -271.429 -63.1962)">H12ESR00989_2012.5671232876712_Canterbury</text><text x="1497.4506717748766" y="1110.8333333333335" transform="matrix(1.22067 0 0 1.05887 0 0) matrix(1 0 0 1 -270.701 -61.76)">H12ESR00363_2012.558904109589_Hawkes-Bay</text><text x="1500.1347774327778" y="1085" transform="matrix(1.22067 0 0 1.05887 0 0) matrix(1 0 0 1 -271.186 -60.3237)">H12ESR00891_2012.5643835616438_Waikato</text><text x="1509.5291472355445" y="1059.1666666666665" transform="matrix(1.22067 0 0 1.05887 0 0) matrix(1 0 0 1 -272.885 -58.8874)">H12ESR01986_2012.5835616438355_Canterbury</text><text x="1528.3178868411896" y="1033.3333333333335" transform="matrix(1.22067 0 0 1.05887 0 0) matrix(1 0 0 1 -276.281 -57.4511)">H12ESR01734_2012.6219178082192_Bay-of-Plenty</text><text x="1480.0039849981824" y="1007.5" transform="matrix(1.22067 0 0 1.05887 0 0) matrix(1 0 0 1 -267.547 -56.0149)">VIR12592_2012.5232876712328_Capital-and-Coast</text><text x="1453.1629284188207" y="981.6666666666666" transform="matrix(1.22067 0 0 1.05887 0 0) matrix(1 0 0 1 -262.695 -54.5786)">H12ESR00669_2012.468493150685_Canterbury</text><text x="1489.3983548010608" y="955.8333333333334" transform="matrix(1.22067 0 0 1.05887 0 0) matrix(1 0 0 1 -269.246 -53.1423)">H12ESR00414_2012.5424657534247_Canterbury</text><text x="1496.1086189459259" y="930" transform="matrix(1.22067 0 0 1.05887 0 0) matrix(1 0 0 1 -270.459 -51.706)">H12ESR00970_2012.5561643835617_Canterbury</text><text x="1547.106626446723" y="904.1666666666667" transform="matrix(1.22067 0 0 1.05887 0 0) matrix(1 0 0 1 -279.678 -50.2697)">H12ESR02264_2012.6602739726027_Southern</text><text x="1459.8731925636982" y="878.3333333333333" transform="matrix(1.22067 0 0 1.05887 0 0) matrix(1 0 0 1 -263.908 -48.8335)">VIR12527_2012.482191780822_Nelson-Marlborough</text><text x="1480.0039849981824" y="852.5" transform="matrix(1.22067 0 0 1.05887 0 0) matrix(1 0 0 1 -267.547 -47.3972)">VIR12627_2012.5232876712328_Nelson-Marlborough</text><text x="1506.8450415776433" y="826.6666666666667" transform="matrix(1.22067 0 0 1.05887 0 0) matrix(1 0 0 1 -272.4 -45.9609)">H12ESR00772_2012.5780821917808_Hawkes-Bay</text><text x="1529.6599396701404" y="800.8333333333333" transform="matrix(1.22067 0 0 1.05887 0 0) matrix(1 0 0 1 -276.524 -44.5246)">H12ESR01576_2012.6246575342466_Hawkes-Bay</text><text x="1565.8953660523678" y="775" transform="matrix(1.22067 0 0 1.05887 0 0) matrix(1 0 0 1 -283.074 -43.0883)">H12ESR03038_2012.6986301369864_Lakes</text><text x="1493.424513287913" y="749.1666666666667" transform="matrix(1.22067 0 0 1.05887 0 0) matrix(1 0 0 1 -269.973 -41.6521)">H12ESR00900_2012.5506849315068_Waikato</text><text x="1582" y="723.3333333333333" transform="matrix(1.22067 0 0 1.05887 0 0) matrix(1 0 0 1 -285.986 -40.2158)">H12ESR03328_2012.731506849315_MidCentral</text><text x="1488.0563019721098" y="697.5" transform="matrix(1.22067 0 0 1.05887 0 0) matrix(1 0 0 1 -269.003 -38.7795)">H12ESR00903_2012.5397260273974_Waikato</text><text x="1521.6076226963244" y="671.6666666666667" transform="matrix(1.22067 0 0 1.05887 0 0) matrix(1 0 0 1 -275.068 -37.3432)">H12ESR01519_2012.6082191780822_Counties-Manukau</text><text x="1537.7122566439564" y="645.8333333333333" transform="matrix(1.22067 0 0 1.05887 0 0) matrix(1 0 0 1 -277.98 -35.907)">H12ESR01860_2012.641095890411_Capital-and-Coast</text><text x="1535.0281509860552" y="620" transform="matrix(1.22067 0 0 1.05887 0 0) matrix(1 0 0 1 -277.494 -34.4707)">H12ESR02055_2012.6356164383562_Counties-Manukau</text><text x="1488.0563019721098" y="594.1666666666666" transform="matrix(1.22067 0 0 1.05887 0 0) matrix(1 0 0 1 -269.003 -33.0344)">VIR12680_2012.5397260273974_Bay-of-Plenty</text><text x="1526.9758340122391" y="568.3333333333334" transform="matrix(1.22067 0 0 1.05887 0 0) matrix(1 0 0 1 -276.039 -31.5981)">H12ESR01595_2012.6191780821919_Hutt-Valley</text><text x="1547.106626446723" y="542.5" transform="matrix(1.22067 0 0 1.05887 0 0) matrix(1 0 0 1 -279.678 -30.1618)">H12ESR02548_2012.6602739726027_Counties-Manukau</text><text x="1531.0019924990913" y="516.6666666666666" transform="matrix(1.22067 0 0 1.05887 0 0) matrix(1 0 0 1 -276.766 -28.7256)">H12ESR02787_2012.627397260274_Auckland</text><text x="1535.0281509860552" y="490.83333333333337" transform="matrix(1.22067 0 0 1.05887 0 0) matrix(1 0 0 1 -277.494 -27.2893)">H12ESR01629_2012.6356164383562_Whanganui</text><text x="1532.344045328042" y="465" transform="matrix(1.22067 0 0 1.05887 0 0) matrix(1 0 0 1 -277.009 -25.853)">H12ESR02795_2012.6301369863013_Auckland</text><text x="1469.2675623664509" y="439.16666666666663" transform="matrix(1.22067 0 0 1.05887 0 0) matrix(1 0 0 1 -265.606 -24.4167)">HBI12539_2012.5013698630137_Auckland</text><text x="1506.8450415776433" y="413.33333333333337" transform="matrix(1.22067 0 0 1.05887 0 0) matrix(1 0 0 1 -272.4 -22.9805)">H12ESR00732_2012.5780821917808_Capital-and-Coast</text><text x="1516.2394113804103" y="387.5" transform="matrix(1.22067 0 0 1.05887 0 0) matrix(1 0 0 1 -274.098 -21.5442)">H12ESR01137_2012.5972602739726_Lakes</text><text x="1450.4788227609195" y="361.66666666666663" transform="matrix(1.22067 0 0 1.05887 0 0) matrix(1 0 0 1 -262.21 -20.1079)">VIR12465_2012.4630136986302_Capital-and-Coast</text><text x="1500.1347774327783" y="335.83333333333337" transform="matrix(1.22067 0 0 1.05887 0 0) matrix(1 0 0 1 -271.186 -18.6716)">H12ESR01219_2012.5643835616438_Hutt-Valley</text><text x="1520.2655698673739" y="310" transform="matrix(1.22067 0 0 1.05887 0 0) matrix(1 0 0 1 -274.826 -17.2353)">H12ESR01998_2012.6054794520549_Canterbury</text><text x="1553.8168905915886" y="284.16666666666663" transform="matrix(1.22067 0 0 1.05887 0 0) matrix(1 0 0 1 -280.891 -15.7991)">H12ESR02253_2012.6739726027397_Whanganui</text><text x="1494.7665661168637" y="258.33333333333337" transform="matrix(1.22067 0 0 1.05887 0 0) matrix(1 0 0 1 -270.216 -14.3628)">H12ESR00898_2012.5534246575342_Waikato</text><text x="1501.4768302617292" y="232.5" transform="matrix(1.22067 0 0 1.05887 0 0) matrix(1 0 0 1 -271.429 -12.9265)">H12ESR00823_2012.5671232876712_Counties-Manukau</text><text x="1532.344045328042" y="206.66666666666663" transform="matrix(1.22067 0 0 1.05887 0 0) matrix(1 0 0 1 -277.009 -11.4902)">H12ESR01868_2012.6301369863013_MidCentral</text><text x="1522.9496755252753" y="180.83333333333337" transform="matrix(1.22067 0 0 1.05887 0 0) matrix(1 0 0 1 -275.311 -10.0539)">H12ESR02458_2012.6109589041096_Auckland</text><text x="1493.424513287913" y="155" transform="matrix(1.22067 0 0 1.05887 0 0) matrix(1 0 0 1 -269.973 -8.61767)">H12ESR00297_2012.5506849315068_Tairawhiti-(Gisborne)</text><text x="1500.1347774327783" y="129.16666666666663" transform="matrix(1.22067 0 0 1.05887 0 0) matrix(1 0 0 1 -271.186 -7.18139)">H12ESR00895_2012.5643835616438_Waikato</text><text x="1555.1589434205391" y="103.33333333333339" transform="matrix(1.22067 0 0 1.05887 0 0) matrix(1 0 0 1 -281.133 -5.74511)">H12ESR02501_2012.676712328767_Bay-of-Plenty</text><text x="1563.2112603943551" y="77.5" transform="matrix(1.22067 0 0 1.05887 0 0) matrix(1 0 0 1 -282.589 -4.30883)">H12ESR02862_2012.6931506849314_Counties-Manukau</text><text x="1453.1629284188134" y="51.66666666666662" transform="matrix(1.22067 0 0 1.05887 0 0) matrix(1 0 0 1 -262.695 -2.87256)">VIR12466_2012.468493150685_Taranaki</text><text x="1488.0563019721098" y="25.83333333333338" transform="matrix(1.22067 0 0 1.05887 0 0) matrix(1 0 0 1 -269.003 -1.43628)">VIR12634_2012.5397260273974_Taranaki</text><text x="1447.7947171029189" y="0" transform="matrix(1.22067 0 0 1.05887 0 0) matrix(1 0 0 1 -261.725 0)">H12ESR00659_2012.4575342465753_Canterbury</text><text class="axisComponent" x="-7.7933454513549805" y="897.6895141601562" transform="matrix(1.22067 0 0 1.05887 0 0) matrix(1 0 0 1 1.40884 -49.9096)">Type</text><rect x="-1.6900177755488457" y="908.2782159620716" width="12.206654699352086" height="10.588709677419354" fill="#e50000" class="axisComponent"></rect><text class="axisComponent" x="22.723291623155326" y="918.8669256394909" fill="#e50000" transform="matrix(1.22067 0 0 1.05887 0 0) matrix(1 0 0 1 -4.1078 -51.087)">Auckland</text><rect x="-1.6900177755488457" y="929.4556451612904" width="12.206654699352086" height="10.588709677419354" fill="#e5005b" class="axisComponent"></rect><text class="axisComponent" x="22.723291623155326" y="940.0443548387096" fill="#e5005b" transform="matrix(1.22067 0 0 1.05887 0 0) matrix(1 0 0 1 -4.1078 -52.2645)">Bay-of-Plenty</text><rect x="-1.6900177755488457" y="950.6330743605091" width="12.206654699352086" height="10.588709677419354" fill="#e500b7" class="axisComponent"></rect><text class="axisComponent" x="22.723291623155326" y="961.2217840379284" fill="#e500b7" transform="matrix(1.22067 0 0 1.05887 0 0) matrix(1 0 0 1 -4.1078 -53.4419)">Canterbury</text><rect x="-1.6900177755488457" y="971.8105035597279" width="12.206654699352086" height="10.588709677419354" fill="#b700e5" class="axisComponent"></rect><text class="axisComponent" x="22.723291623155326" y="982.3992132371471" fill="#b700e5" transform="matrix(1.22067 0 0 1.05887 0 0) matrix(1 0 0 1 -4.1078 -54.6193)">Capital-and-Coast</text><rect x="-1.6900177755488457" y="992.9879327589466" width="12.206654699352086" height="10.588709677419354" fill="#5b00e5" class="axisComponent"></rect><text class="axisComponent" x="22.723291623155326" y="1003.5766424363659" fill="#5b00e5" transform="matrix(1.22067 0 0 1.05887 0 0) matrix(1 0 0 1 -4.1078 -55.7967)">Counties-Manukau</text><rect x="-1.6900177755488457" y="1014.1653009230091" width="12.206654699352086" height="10.588709677419354" fill="#0000e5" class="axisComponent"></rect><text class="axisComponent" x="22.723291623155326" y="1024.7540106004285" fill="#0000e5" transform="matrix(1.22067 0 0 1.05887 0 0) matrix(1 0 0 1 -4.1078 -56.9741)">Hawkes-Bay</text><rect x="-1.6900177755488457" y="1035.3427301222277" width="12.206654699352086" height="10.588709677419354" fill="#005be5" class="axisComponent"></rect><text class="axisComponent" x="22.723291623155326" y="1045.9314397996473" fill="#005be5" transform="matrix(1.22067 0 0 1.05887 0 0) matrix(1 0 0 1 -4.1078 -58.1516)">Hutt-Valley</text><rect x="-1.6900177755488457" y="1056.5202203566027" width="12.206654699352086" height="10.588709677419354" fill="#00b7e5" class="axisComponent"></rect><text class="axisComponent" x="22.723291623155326" y="1067.1089300340223" fill="#00b7e5" transform="matrix(1.22067 0 0 1.05887 0 0) matrix(1 0 0 1 -4.1078 -59.329)">Lakes</text><rect x="-1.6900177755488457" y="1077.6975885206652" width="12.206654699352086" height="10.588709677419354" fill="#00997a" class="axisComponent"></rect><text class="axisComponent" x="22.723291623155326" y="1088.2862981980848" fill="#00997a" transform="matrix(1.22067 0 0 1.05887 0 0) matrix(1 0 0 1 -4.1078 -60.5064)">MidCentral</text><rect x="-1.6900177755488457" y="1098.8749566847277" width="12.206654699352086" height="10.588709677419354" fill="#00993d" class="axisComponent"></rect><text class="axisComponent" x="22.723291623155326" y="1109.4636663621473" fill="#00993d" transform="matrix(1.22067 0 0 1.05887 0 0) matrix(1 0 0 1 -4.1078 -61.6838)">Nelson-Marlborough</text><rect x="-1.6900177755488457" y="1120.0524469191027" width="12.206654699352086" height="10.588709677419354" fill="#009900" class="axisComponent"></rect><text class="axisComponent" x="22.723291623155326" y="1130.6411565965223" fill="#009900" transform="matrix(1.22067 0 0 1.05887 0 0) matrix(1 0 0 1 -4.1078 -62.8612)">Southern</text><rect x="-1.6900177755488457" y="1141.2298150831652" width="12.206654699352086" height="10.588709677419354" fill="#3d9900" class="axisComponent"></rect><text class="axisComponent" x="22.723291623155326" y="1151.8185247605848" fill="#3d9900" transform="matrix(1.22067 0 0 1.05887 0 0) matrix(1 0 0 1 -4.1078 -64.0387)">Tairawhiti-(Gisborne)</text><rect x="-1.6900177755488457" y="1162.4073053175402" width="12.206654699352086" height="10.588709677419354" fill="#7a9900" class="axisComponent"></rect><text class="axisComponent" x="22.723291623155326" y="1172.9960149949598" fill="#7a9900" transform="matrix(1.22067 0 0 1.05887 0 0) matrix(1 0 0 1 -4.1078 -65.2161)">Taranaki</text><rect x="-1.6900177755488457" y="1183.5846734816027" width="12.206654699352086" height="10.588709677419354" fill="#997a00" class="axisComponent"></rect><text class="axisComponent" x="22.723291623155326" y="1194.1733831590223" fill="#997a00" transform="matrix(1.22067 0 0 1.05887 0 0) matrix(1 0 0 1 -4.1078 -66.3935)">Waikato</text><rect x="-1.6900177755488457" y="1204.7620416456652" width="12.206654699352086" height="10.588709677419354" fill="#e55b00" class="axisComponent"></rect><text class="axisComponent" x="22.723291623155326" y="1215.3507513230848" fill="#e55b00" transform="matrix(1.22067 0 0 1.05887 0 0) matrix(1 0 0 1 -4.1078 -67.5709)">Whanganui</text></svg>