<svg xmlns="http://www.w3.org/2000/svg" version="1.1" width="1582" height="1282" preserveAspectRatio="none" id="SVG" style="stroke-width: 2px; font-size: 11px; font-family: sans-serif; shape-rendering: crispEdges;" viewBox="-20 -50 1930.9783935546875 1355"><rect id="backgroundRect" x="-20" y="-50" width="1930.9783935546875" height="1355" fill="white"></rect><path d="M 1497.0228839817917 1282 H 1474.5491392163478 V 1268.6458333333335" fill="none" stroke-opacity="1" class="treeEdge trait_U291dGhlcm4=" vector-effect="non-scaling-stroke" id="node#26" stroke="#009900"></path><path d="M 1483.534452867762 1255.2916666666665 H 1474.5491392163478 V 1268.6458333333335" fill="none" stroke-opacity="1" class="treeEdge trait_U291dGhlcm4=" vector-effect="non-scaling-stroke" id="node#27" stroke="#009900"></path><path d="M 1501.0694133159338 1228.5833333333335 H 1466.4849678214725 V 1248.6145833333335" fill="none" stroke-opacity="1" class="treeEdge trait_Q2FudGVyYnVyeQ==" vector-effect="non-scaling-stroke" id="node#28" stroke="#e500b7"></path><path d="M 1511.8601582072022 1201.875 H 1475.11105299199 V 1188.5208333333335" fill="none" stroke-opacity="1" class="treeEdge trait_U291dGhlcm4=" vector-effect="non-scaling-stroke" id="node#30" stroke="#009900"></path><path d="M 1488.9298253133963 1175.1666666666665 H 1475.11105299199 V 1188.5208333333335" fill="none" stroke-opacity="1" class="treeEdge trait_U291dGhlcm4=" vector-effect="non-scaling-stroke" id="node#31" stroke="#009900"></path><path d="M 1497.0228839817917 1148.4583333333335 H 1450.0838725153533 V 1183.5130208333335" fill="none" stroke-opacity="1" class="treeEdge trait_SGF3a2VzLUJheQ==" vector-effect="non-scaling-stroke" id="node#22" stroke="#0000e5"></path><path d="M 1499.720570204553 1121.75 H 1446.6410656542125 V 1108.3958333333333" fill="none" stroke-opacity="1" class="treeEdge trait_V2Fpa2F0bw==" vector-effect="non-scaling-stroke" id="node#33" stroke="#997a00"></path><path d="M 1509.162471984329 1095.0416666666665 H 1446.6410656542125 V 1108.3958333333333" fill="none" stroke-opacity="1" class="treeEdge trait_Q2FudGVyYnVyeQ==" vector-effect="non-scaling-stroke" id="node#34" stroke="#e500b7"></path><path d="M 1528.046275543993 1068.3333333333335 H 1473.3176875785596 V 1054.9791666666667" fill="none" stroke-opacity="1" class="treeEdge trait_QmF5LW9mLVBsZW50eQ==" vector-effect="non-scaling-stroke" id="node#36" stroke="#e5005b"></path><path d="M 1479.4879235335084 1041.625 H 1473.3176875785596 V 1054.9791666666667" fill="none" stroke-opacity="1" class="treeEdge trait_Q2FwaXRhbC1hbmQtQ29hc3Q=" vector-effect="non-scaling-stroke" id="node#37" stroke="#b700e5"></path><path d="M 1452.5110613055608 1014.9166666666666 H 1411.1910491836225 V 1057.6917317708333" fill="none" stroke-opacity="1" class="treeEdge trait_Q2FudGVyYnVyeQ==" vector-effect="non-scaling-stroke" id="node#38" stroke="#e500b7"></path><path d="M 1488.9298253133963 988.2083333333334 H 1472.0960117597995 V 974.8541666666667" fill="none" stroke-opacity="1" class="treeEdge trait_Q2FudGVyYnVyeQ==" vector-effect="non-scaling-stroke" id="node#42" stroke="#e500b7"></path><path d="M 1546.9300791035455 961.5 H 1472.0960117597995 V 974.8541666666667" fill="none" stroke-opacity="1" class="treeEdge trait_U291dGhlcm4=" vector-effect="non-scaling-stroke" id="node#43" stroke="#009900"></path><path d="M 1495.674040870411 934.7916666666667 H 1461.1700356197243 V 954.8229166666667" fill="none" stroke-opacity="1" class="treeEdge trait_Q2FudGVyYnVyeQ==" vector-effect="non-scaling-stroke" id="node#44" stroke="#e500b7"></path><path d="M 1459.2552768625756 908.0833333333333 H 1444.0934943476927 V 894.7291666666666" fill="none" stroke-opacity="1" class="treeEdge trait_TmVsc29uLU1hcmxib3JvdWdo" vector-effect="non-scaling-stroke" id="node#46" stroke="#00993d"></path><path d="M 1479.4879235335084 881.375 H 1444.0934943476927 V 894.7291666666666" fill="none" stroke-opacity="1" class="treeEdge trait_TmVsc29uLU1hcmxib3JvdWdo" vector-effect="non-scaling-stroke" id="node#47" stroke="#00993d"></path><path d="M 1506.4647857615673 854.6666666666667 H 1495.0054062366635 V 841.3125" fill="none" stroke-opacity="1" class="treeEdge trait_SGF3a2VzLUJheQ==" vector-effect="non-scaling-stroke" id="node#56" stroke="#0000e5"></path><path d="M 1529.3951186553732 827.9583333333333 H 1495.0054062366635 V 841.3125" fill="none" stroke-opacity="1" class="treeEdge trait_SGF3a2VzLUJheQ==" vector-effect="non-scaling-stroke" id="node#57" stroke="#0000e5"></path><path d="M 1565.8138826632091 801.25 H 1489.6474856389116 V 821.28125" fill="none" stroke-opacity="1" class="treeEdge trait_TGFrZXM=" vector-effect="non-scaling-stroke" id="node#58" stroke="#00b7e5"></path><path d="M 1492.9763546475378 774.5416666666667 H 1489.6172172180438 V 761.1875" fill="none" stroke-opacity="1" class="treeEdge trait_V2Fpa2F0bw==" vector-effect="non-scaling-stroke" id="node#60" stroke="#997a00"></path><path d="M 1582 747.8333333333333 H 1489.6172172180438 V 761.1875" fill="none" stroke-opacity="1" class="treeEdge trait_TWlkQ2VudHJhbA==" vector-effect="non-scaling-stroke" id="node#61" stroke="#00997a"></path><path d="M 1487.5809822020155 721.125 H 1471.5883130806897 V 756.1796875" fill="none" stroke-opacity="1" class="treeEdge trait_V2Fpa2F0bw==" vector-effect="non-scaling-stroke" id="node#62" stroke="#997a00"></path><path d="M 1521.3020599869783 694.4166666666667 H 1483.2235642342896 V 681.0625" fill="none" stroke-opacity="1" class="treeEdge trait_Q291bnRpZXMtTWFudWthdQ==" vector-effect="non-scaling-stroke" id="node#65" stroke="#5b00e5"></path><path d="M 1537.4881773237692 667.7083333333333 H 1483.2235642342896 V 681.0625" fill="none" stroke-opacity="1" class="treeEdge trait_Q2FwaXRhbC1hbmQtQ29hc3Q=" vector-effect="non-scaling-stroke" id="node#66" stroke="#b700e5"></path><path d="M 1534.790491101008 641 H 1471.8618470024235 V 627.6458333333333" fill="none" stroke-opacity="1" class="treeEdge trait_Q291bnRpZXMtTWFudWthdQ==" vector-effect="non-scaling-stroke" id="node#68" stroke="#5b00e5"></path><path d="M 1487.5809822020155 614.2916666666666 H 1471.8618470024235 V 627.6458333333333" fill="none" stroke-opacity="1" class="treeEdge trait_QmF5LW9mLVBsZW50eQ==" vector-effect="non-scaling-stroke" id="node#69" stroke="#e5005b"></path><path d="M 1526.6974324326125 587.5833333333334 H 1454.8150011938337 V 646.4251302083334" fill="none" stroke-opacity="1" class="treeEdge trait_SHV0dC1WYWxsZXk=" vector-effect="non-scaling-stroke" id="node#70" stroke="#005be5"></path><path d="M 1546.9300791035453 560.875 H 1483.5920128882628 V 547.5208333333333" fill="none" stroke-opacity="1" class="treeEdge trait_Q291bnRpZXMtTWFudWthdQ==" vector-effect="non-scaling-stroke" id="node#72" stroke="#5b00e5"></path><path d="M 1530.7439617667544 534.1666666666666 H 1483.5920128882628 V 547.5208333333333" fill="none" stroke-opacity="1" class="treeEdge trait_QXVja2xhbmQ=" vector-effect="non-scaling-stroke" id="node#73" stroke="#e50000"></path><path d="M 1534.790491101008 507.45833333333337 H 1396.1868451264909 V 494.10416666666674" fill="none" stroke-opacity="1" class="treeEdge trait_V2hhbmdhbnVp" vector-effect="non-scaling-stroke" id="node#75" stroke="#e55b00"></path><path d="M 1532.0928048781348 480.75 H 1396.1868451264909 V 494.10416666666674" fill="none" stroke-opacity="1" class="treeEdge trait_QXVja2xhbmQ=" vector-effect="non-scaling-stroke" id="node#76" stroke="#e50000"></path><path d="M 1468.6971786423517 454.04166666666663 H 1130.1583610143412 V 611.2139485677083" fill="none" stroke-opacity="1" class="treeEdge trait_QXVja2xhbmQ=" vector-effect="non-scaling-stroke" id="node#77" stroke="#e50000"></path><path d="M 1515.9066875413437 427.33333333333337 H 1409.7733107593526 V 413.97916666666674" fill="none" stroke-opacity="1" class="treeEdge trait_TGFrZXM=" vector-effect="non-scaling-stroke" id="node#83" stroke="#00b7e5"></path><path d="M 1449.8133750827994 400.625 H 1409.7733107593526 V 413.97916666666674" fill="none" stroke-opacity="1" class="treeEdge trait_Q2FwaXRhbC1hbmQtQ29hc3Q=" vector-effect="non-scaling-stroke" id="node#84" stroke="#b700e5"></path><path d="M 1506.4647857615678 373.91666666666663 H 1403.6867874399245 V 393.94791666666674" fill="none" stroke-opacity="1" class="treeEdge trait_Q2FwaXRhbC1hbmQtQ29hc3Q=" vector-effect="non-scaling-stroke" id="node#81" stroke="#b700e5"></path><path d="M 1499.720570204553 347.20833333333337 H 1369.421202107635 V 370.578125" fill="none" stroke-opacity="1" class="treeEdge trait_SHV0dC1WYWxsZXk=" vector-effect="non-scaling-stroke" id="node#85" stroke="#005be5"></path><path d="M 1519.9532168755975 320.5 H 1471.6694582803887 V 307.14583333333326" fill="none" stroke-opacity="1" class="treeEdge trait_Q2FudGVyYnVyeQ==" vector-effect="non-scaling-stroke" id="node#91" stroke="#e500b7"></path><path d="M 1553.6742946605602 293.79166666666663 H 1471.6694582803887 V 307.14583333333326" fill="none" stroke-opacity="1" class="treeEdge trait_V2hhbmdhbnVp" vector-effect="non-scaling-stroke" id="node#92" stroke="#e55b00"></path><path d="M 1494.3251977589186 267.08333333333337 H 1438.0230265655637 V 287.11458333333326" fill="none" stroke-opacity="1" class="treeEdge trait_V2Fpa2F0bw==" vector-effect="non-scaling-stroke" id="node#89" stroke="#997a00"></path><path d="M 1501.0694133159334 240.375 H 1421.7484930481053 V 263.74479166666663" fill="none" stroke-opacity="1" class="treeEdge trait_Q291bnRpZXMtTWFudWthdQ==" vector-effect="non-scaling-stroke" id="node#87" stroke="#5b00e5"></path><path d="M 1532.0928048781345 213.66666666666663 H 1466.0249575345238 V 200.3125" fill="none" stroke-opacity="1" class="treeEdge trait_TWlkQ2VudHJhbA==" vector-effect="non-scaling-stroke" id="node#7" stroke="#00997a"></path><path d="M 1522.6509030983586 186.95833333333337 H 1466.0249575345238 V 200.3125" fill="none" stroke-opacity="1" class="treeEdge trait_QXVja2xhbmQ=" vector-effect="non-scaling-stroke" id="node#8" stroke="#e50000"></path><path d="M 1492.976354647538 160.25 H 1451.0917707714477 V 180.28125" fill="none" stroke-opacity="1" class="treeEdge trait_VGFpcmF3aGl0aS0oR2lzYm9ybmUp" vector-effect="non-scaling-stroke" id="node#5" stroke="#3d9900"></path><path d="M 1555.0231377719406 133.54166666666663 H 1481.6251188090682 V 120.1875" fill="none" stroke-opacity="1" class="treeEdge trait_QmF5LW9mLVBsZW50eQ==" vector-effect="non-scaling-stroke" id="node#12" stroke="#e5005b"></path><path d="M 1563.1161964403361 106.83333333333339 H 1481.6251188090682 V 120.1875" fill="none" stroke-opacity="1" class="treeEdge trait_Q291bnRpZXMtTWFudWthdQ==" vector-effect="non-scaling-stroke" id="node#13" stroke="#5b00e5"></path><path d="M 1499.720570204553 80.125 H 1463.4483628986138 V 100.15625" fill="none" stroke-opacity="1" class="treeEdge trait_V2Fpa2F0bw==" vector-effect="non-scaling-stroke" id="node#10" stroke="#997a00"></path><path d="M 1452.5110613055608 53.41666666666662 H 1398.7132954152464 V 40.0625" fill="none" stroke-opacity="1" class="treeEdge trait_VGFyYW5ha2k=" vector-effect="non-scaling-stroke" id="node#94" stroke="#7a9900"></path><path d="M 1487.5809822020155 26.708333333333382 H 1398.7132954152464 V 40.0625" fill="none" stroke-opacity="1" class="treeEdge trait_VGFyYW5ha2k=" vector-effect="non-scaling-stroke" id="node#95" stroke="#7a9900"></path><path d="M 1447.1156888599264 0 H 15.663366336633677 V 85.56643168131505" fill="none" stroke-opacity="1" class="treeEdge trait_Q2FudGVyYnVyeQ==" vector-effect="non-scaling-stroke" id="node#96" stroke="#e500b7"></path><path d="M 1474.5491392163478 1268.6458333333335 H 1466.4849678214725 V 1248.6145833333335" fill="none" stroke-opacity="1" class="treeEdge trait_U291dGhlcm4=" vector-effect="non-scaling-stroke" id="node#25" stroke="#009900"></path><path d="M 1466.4849678214725 1248.6145833333335 H 1457.9828254910633 V 1218.5677083333335" fill="none" stroke-opacity="1" class="treeEdge trait_U291dGhlcm4=" vector-effect="non-scaling-stroke" id="node#24" stroke="#009900"></path><path d="M 1475.11105299199 1188.5208333333335 H 1457.9828254910633 V 1218.5677083333335" fill="none" stroke-opacity="1" class="treeEdge trait_U291dGhlcm4=" vector-effect="non-scaling-stroke" id="node#29" stroke="#009900"></path><path d="M 1457.9828254910633 1218.5677083333335 H 1450.0838725153533 V 1183.5130208333335" fill="none" stroke-opacity="1" class="treeEdge trait_U291dGhlcm4=" vector-effect="non-scaling-stroke" id="node#23" stroke="#009900"></path><path d="M 1450.0838725153533 1183.5130208333335 H 1438.679399822427 V 1145.9544270833335" fill="none" stroke-opacity="1" class="treeEdge trait_U291dGhlcm4=" vector-effect="non-scaling-stroke" id="node#21" stroke="#009900"></path><path d="M 1446.6410656542125 1108.3958333333333 H 1438.679399822427 V 1145.9544270833335" fill="none" stroke-opacity="1" class="treeEdge trait_U291dGhlcm4=" vector-effect="non-scaling-stroke" id="node#32" stroke="#009900"></path><path d="M 1438.679399822427 1145.9544270833335 H 1420.543694658167 V 1100.466796875" fill="none" stroke-opacity="1" class="treeEdge trait_U291dGhlcm4=" vector-effect="non-scaling-stroke" id="node#20" stroke="#009900"></path><path d="M 1473.3176875785596 1054.9791666666667 H 1420.543694658167 V 1100.466796875" fill="none" stroke-opacity="1" class="treeEdge trait_Q2FwaXRhbC1hbmQtQ29hc3Q=" vector-effect="non-scaling-stroke" id="node#35" stroke="#b700e5"></path><path d="M 1420.543694658167 1100.466796875 H 1411.1910491836225 V 1057.6917317708333" fill="none" stroke-opacity="1" class="treeEdge trait_U291dGhlcm4=" vector-effect="non-scaling-stroke" id="node#19" stroke="#009900"></path><path d="M 1411.1910491836225 1057.6917317708333 H 1390.6663280428363 V 991.23388671875" fill="none" stroke-opacity="1" class="treeEdge trait_U291dGhlcm4=" vector-effect="non-scaling-stroke" id="node#18" stroke="#009900"></path><path d="M 1472.0960117597995 974.8541666666667 H 1461.1700356197243 V 954.8229166666667" fill="none" stroke-opacity="1" class="treeEdge trait_Q2FudGVyYnVyeQ==" vector-effect="non-scaling-stroke" id="node#41" stroke="#e500b7"></path><path d="M 1461.1700356197243 954.8229166666667 H 1403.7857505734773 V 924.7760416666666" fill="none" stroke-opacity="1" class="treeEdge trait_Q2FudGVyYnVyeQ==" vector-effect="non-scaling-stroke" id="node#40" stroke="#e500b7"></path><path d="M 1444.0934943476927 894.7291666666666 H 1403.7857505734773 V 924.7760416666666" fill="none" stroke-opacity="1" class="treeEdge trait_TmVsc29uLU1hcmxib3JvdWdo" vector-effect="non-scaling-stroke" id="node#45" stroke="#00993d"></path><path d="M 1403.7857505734773 924.7760416666666 H 1390.6663280428363 V 991.23388671875" fill="none" stroke-opacity="1" class="treeEdge trait_U291dGhlcm4=" vector-effect="non-scaling-stroke" id="node#39" stroke="#009900"></path><path d="M 1390.6663280428363 991.23388671875 H 1146.5815704791428 V 768.38623046875" fill="none" stroke-opacity="1" class="treeEdge trait_U291dGhlcm4=" vector-effect="non-scaling-stroke" id="node#17" stroke="#009900"></path><path d="M 1495.0054062366635 841.3125 H 1489.6474856389116 V 821.28125" fill="none" stroke-opacity="1" class="treeEdge trait_SGF3a2VzLUJheQ==" vector-effect="non-scaling-stroke" id="node#55" stroke="#0000e5"></path><path d="M 1489.6474856389116 821.28125 H 1477.8986622636528 V 791.234375" fill="none" stroke-opacity="1" class="treeEdge trait_SGF3a2VzLUJheQ==" vector-effect="non-scaling-stroke" id="node#54" stroke="#0000e5"></path><path d="M 1489.6172172180438 761.1875 H 1477.8986622636528 V 791.234375" fill="none" stroke-opacity="1" class="treeEdge trait_V2Fpa2F0bw==" vector-effect="non-scaling-stroke" id="node#59" stroke="#997a00"></path><path d="M 1477.8986622636528 791.234375 H 1471.5883130806897 V 756.1796875" fill="none" stroke-opacity="1" class="treeEdge trait_V2Fpa2F0bw==" vector-effect="non-scaling-stroke" id="node#53" stroke="#997a00"></path><path d="M 1471.5883130806897 756.1796875 H 1459.7711595723556 V 705.2669270833333" fill="none" stroke-opacity="1" class="treeEdge trait_V2Fpa2F0bw==" vector-effect="non-scaling-stroke" id="node#52" stroke="#997a00"></path><path d="M 1483.2235642342896 681.0625 H 1469.0723958708475 V 654.3541666666666" fill="none" stroke-opacity="1" class="treeEdge trait_V2Fpa2F0bw==" vector-effect="non-scaling-stroke" id="node#64" stroke="#997a00"></path><path d="M 1471.8618470024235 627.6458333333333 H 1469.0723958708475 V 654.3541666666666" fill="none" stroke-opacity="1" class="treeEdge trait_QmF5LW9mLVBsZW50eQ==" vector-effect="non-scaling-stroke" id="node#67" stroke="#e5005b"></path><path d="M 1469.0723958708475 654.3541666666666 H 1459.7711595723556 V 705.2669270833333" fill="none" stroke-opacity="1" class="treeEdge trait_V2Fpa2F0bw==" vector-effect="non-scaling-stroke" id="node#63" stroke="#997a00"></path><path d="M 1459.7711595723556 705.2669270833333 H 1454.8150011938337 V 646.4251302083334" fill="none" stroke-opacity="1" class="treeEdge trait_V2Fpa2F0bw==" vector-effect="non-scaling-stroke" id="node#51" stroke="#997a00"></path><path d="M 1454.8150011938337 646.4251302083334 H 1430.4497331244943 V 596.9729817708333" fill="none" stroke-opacity="1" class="treeEdge trait_V2Fpa2F0bw==" vector-effect="non-scaling-stroke" id="node#50" stroke="#997a00"></path><path d="M 1483.5920128882628 547.5208333333333 H 1430.4497331244943 V 596.9729817708333" fill="none" stroke-opacity="1" class="treeEdge trait_V2Fpa2F0bw==" vector-effect="non-scaling-stroke" id="node#71" stroke="#997a00"></path><path d="M 1430.4497331244943 596.9729817708333 H 1225.5338220705223 V 545.53857421875" fill="none" stroke-opacity="1" class="treeEdge trait_V2Fpa2F0bw==" vector-effect="non-scaling-stroke" id="node#49" stroke="#997a00"></path><path d="M 1396.1868451264909 494.10416666666674 H 1225.5338220705223 V 545.53857421875" fill="none" stroke-opacity="1" class="treeEdge trait_QXVja2xhbmQ=" vector-effect="non-scaling-stroke" id="node#74" stroke="#e50000"></path><path d="M 1225.5338220705223 545.53857421875 H 1146.5815704791428 V 768.38623046875" fill="none" stroke-opacity="1" class="treeEdge trait_U291dGhlcm4=" vector-effect="non-scaling-stroke" id="node#48" stroke="#009900"></path><path d="M 1146.5815704791428 768.38623046875 H 1130.1583610143412 V 611.2139485677083" fill="none" stroke-opacity="1" class="treeEdge trait_U291dGhlcm4=" vector-effect="non-scaling-stroke" id="node#16" stroke="#009900"></path><path d="M 1130.1583610143412 611.2139485677083 H 669.941073946412 V 464.18770345052076" fill="none" stroke-opacity="1" class="treeEdge trait_U291dGhlcm4=" vector-effect="non-scaling-stroke" id="node#15" stroke="#009900"></path><path d="M 1409.7733107593526 413.97916666666674 H 1403.6867874399245 V 393.94791666666674" fill="none" stroke-opacity="1" class="treeEdge trait_Q2FwaXRhbC1hbmQtQ29hc3Q=" vector-effect="non-scaling-stroke" id="node#82" stroke="#b700e5"></path><path d="M 1403.6867874399245 393.94791666666674 H 1369.421202107635 V 370.578125" fill="none" stroke-opacity="1" class="treeEdge trait_Q2FwaXRhbC1hbmQtQ29hc3Q=" vector-effect="non-scaling-stroke" id="node#80" stroke="#b700e5"></path><path d="M 1369.421202107635 370.578125 H 1087.2548401471856 V 317.16145833333326" fill="none" stroke-opacity="1" class="treeEdge trait_Q2FwaXRhbC1hbmQtQ29hc3Q=" vector-effect="non-scaling-stroke" id="node#79" stroke="#b700e5"></path><path d="M 1471.6694582803887 307.14583333333326 H 1438.0230265655637 V 287.11458333333326" fill="none" stroke-opacity="1" class="treeEdge trait_U291dGhlcm4=" vector-effect="non-scaling-stroke" id="node#90" stroke="#009900"></path><path d="M 1438.0230265655637 287.11458333333326 H 1421.7484930481053 V 263.74479166666663" fill="none" stroke-opacity="1" class="treeEdge trait_V2Fpa2F0bw==" vector-effect="non-scaling-stroke" id="node#88" stroke="#997a00"></path><path d="M 1421.7484930481053 263.74479166666663 H 1087.2548401471856 V 317.16145833333326" fill="none" stroke-opacity="1" class="treeEdge trait_Q291bnRpZXMtTWFudWthdQ==" vector-effect="non-scaling-stroke" id="node#86" stroke="#5b00e5"></path><path d="M 1087.2548401471856 317.16145833333326 H 669.941073946412 V 464.18770345052076" fill="none" stroke-opacity="1" class="treeEdge trait_U291dGhlcm4=" vector-effect="non-scaling-stroke" id="node#78" stroke="#009900"></path><path d="M 669.941073946412 464.18770345052076 H 494.32714890139755 V 302.2032267252604" fill="none" stroke-opacity="1" class="treeEdge trait_U291dGhlcm4=" vector-effect="non-scaling-stroke" id="node#14" stroke="#009900"></path><path d="M 1466.0249575345238 200.3125 H 1451.0917707714477 V 180.28125" fill="none" stroke-opacity="1" class="treeEdge trait_QmF5LW9mLVBsZW50eQ==" vector-effect="non-scaling-stroke" id="node#6" stroke="#e5005b"></path><path d="M 1451.0917707714477 180.28125 H 1375.1726441380729 V 140.21875" fill="none" stroke-opacity="1" class="treeEdge trait_QmF5LW9mLVBsZW50eQ==" vector-effect="non-scaling-stroke" id="node#4" stroke="#e5005b"></path><path d="M 1481.6251188090682 120.1875 H 1463.4483628986138 V 100.15625" fill="none" stroke-opacity="1" class="treeEdge trait_V2Fpa2F0bw==" vector-effect="non-scaling-stroke" id="node#11" stroke="#997a00"></path><path d="M 1463.4483628986138 100.15625 H 1375.1726441380729 V 140.21875" fill="none" stroke-opacity="1" class="treeEdge trait_V2Fpa2F0bw==" vector-effect="non-scaling-stroke" id="node#9" stroke="#997a00"></path><path d="M 1375.1726441380729 140.21875 H 494.32714890139755 V 302.2032267252604" fill="none" stroke-opacity="1" class="treeEdge trait_V2Fpa2F0bw==" vector-effect="non-scaling-stroke" id="node#3" stroke="#997a00"></path><path d="M 494.32714890139755 302.2032267252604 H 244.2495095927512 V 171.1328633626301" fill="none" stroke-opacity="1" class="treeEdge trait_U291dGhlcm4=" vector-effect="non-scaling-stroke" id="node#2" stroke="#009900"></path><path d="M 1398.7132954152464 40.0625 H 244.2495095927512 V 171.1328633626301" fill="none" stroke-opacity="1" class="treeEdge trait_VGFyYW5ha2k=" vector-effect="non-scaling-stroke" id="node#93" stroke="#7a9900"></path><path d="M 244.2495095927512 171.1328633626301 H 15.663366336633677 V 85.56643168131505" fill="none" stroke-opacity="1" class="treeEdge trait_U291dGhlcm4=" vector-effect="non-scaling-stroke" id="node#1" stroke="#009900"></path><path d="M 15.663366336633677 85.56643168131505 H 0 V 85.56643168131505" fill="none" stroke-opacity="1" class="treeEdge trait_U291dGhlcm4=" vector-effect="non-scaling-stroke" id="node#0" stroke="#009900"></path><text x="1497.0228839817917" y="1282" transform="matrix(1.22059 0 0 1.05694 0 0) matrix(1 0 0 1 -270.551 -69.0672)">H12ESR00381_2012.558904109589_Southern</text><text x="1483.534452867762" y="1255.2916666666665" transform="matrix(1.22059 0 0 1.05694 0 0) matrix(1 0 0 1 -268.114 -67.6283)">VIR12645_2012.531506849315_Southern</text><text x="1501.0694133159338" y="1228.5833333333335" transform="matrix(1.22059 0 0 1.05694 0 0) matrix(1 0 0 1 -271.283 -66.1894)">H12ESR00989_2012.5671232876712_Canterbury</text><text x="1511.8601582072022" y="1201.875" transform="matrix(1.22059 0 0 1.05694 0 0) matrix(1 0 0 1 -273.233 -64.7505)">H12ESR00947_2012.5890410958905_Southern</text><text x="1488.9298253133963" y="1175.1666666666665" transform="matrix(1.22059 0 0 1.05694 0 0) matrix(1 0 0 1 -269.089 -63.3116)">VIR12688_2012.5424657534247_Southern</text><text x="1497.0228839817917" y="1148.4583333333335" transform="matrix(1.22059 0 0 1.05694 0 0) matrix(1 0 0 1 -270.551 -61.8727)">H12ESR00363_2012.558904109589_Hawkes-Bay</text><text x="1499.720570204553" y="1121.75" transform="matrix(1.22059 0 0 1.05694 0 0) matrix(1 0 0 1 -271.039 -60.4338)">H12ESR00891_2012.5643835616438_Waikato</text><text x="1509.162471984329" y="1095.0416666666665" transform="matrix(1.22059 0 0 1.05694 0 0) matrix(1 0 0 1 -272.745 -58.9949)">H12ESR01986_2012.5835616438355_Canterbury</text><text x="1528.046275543993" y="1068.3333333333335" transform="matrix(1.22059 0 0 1.05694 0 0) matrix(1 0 0 1 -276.158 -57.556)">H12ESR01734_2012.6219178082192_Bay-of-Plenty</text><text x="1479.4879235335084" y="1041.625" transform="matrix(1.22059 0 0 1.05694 0 0) matrix(1 0 0 1 -267.382 -56.1171)">VIR12592_2012.5232876712328_Capital-and-Coast</text><text x="1452.5110613055608" y="1014.9166666666666" transform="matrix(1.22059 0 0 1.05694 0 0) matrix(1 0 0 1 -262.507 -54.6782)">H12ESR00669_2012.468493150685_Canterbury</text><text x="1488.9298253133963" y="988.2083333333334" transform="matrix(1.22059 0 0 1.05694 0 0) matrix(1 0 0 1 -269.089 -53.2393)">H12ESR00414_2012.5424657534247_Canterbury</text><text x="1546.9300791035455" y="961.5" transform="matrix(1.22059 0 0 1.05694 0 0) matrix(1 0 0 1 -279.571 -51.8004)">H12ESR02264_2012.6602739726027_Southern</text><text x="1495.674040870411" y="934.7916666666667" transform="matrix(1.22059 0 0 1.05694 0 0) matrix(1 0 0 1 -270.307 -50.3615)">H12ESR00970_2012.5561643835617_Canterbury</text><text x="1459.2552768625756" y="908.0833333333333" transform="matrix(1.22059 0 0 1.05694 0 0) matrix(1 0 0 1 -263.726 -48.9226)">VIR12527_2012.482191780822_Nelson-Marlborough</text><text x="1479.4879235335084" y="881.375" transform="matrix(1.22059 0 0 1.05694 0 0) matrix(1 0 0 1 -267.382 -47.4837)">VIR12627_2012.5232876712328_Nelson-Marlborough</text><text x="1506.4647857615673" y="854.6666666666667" transform="matrix(1.22059 0 0 1.05694 0 0) matrix(1 0 0 1 -272.258 -46.0448)">H12ESR00772_2012.5780821917808_Hawkes-Bay</text><text x="1529.3951186553732" y="827.9583333333333" transform="matrix(1.22059 0 0 1.05694 0 0) matrix(1 0 0 1 -276.402 -44.6059)">H12ESR01576_2012.6246575342466_Hawkes-Bay</text><text x="1565.8138826632091" y="801.25" transform="matrix(1.22059 0 0 1.05694 0 0) matrix(1 0 0 1 -282.984 -43.167)">H12ESR03038_2012.6986301369864_Lakes</text><text x="1492.9763546475378" y="774.5416666666667" transform="matrix(1.22059 0 0 1.05694 0 0) matrix(1 0 0 1 -269.82 -41.7281)">H12ESR00900_2012.5506849315068_Waikato</text><text x="1582" y="747.8333333333333" transform="matrix(1.22059 0 0 1.05694 0 0) matrix(1 0 0 1 -285.909 -40.2892)">H12ESR03328_2012.731506849315_MidCentral</text><text x="1487.5809822020155" y="721.125" transform="matrix(1.22059 0 0 1.05694 0 0) matrix(1 0 0 1 -268.845 -38.8503)">H12ESR00903_2012.5397260273974_Waikato</text><text x="1521.3020599869783" y="694.4166666666667" transform="matrix(1.22059 0 0 1.05694 0 0) matrix(1 0 0 1 -274.939 -37.4114)">H12ESR01519_2012.6082191780822_Counties-Manukau</text><text x="1537.4881773237692" y="667.7083333333333" transform="matrix(1.22059 0 0 1.05694 0 0) matrix(1 0 0 1 -277.864 -35.9725)">H12ESR01860_2012.641095890411_Capital-and-Coast</text><text x="1534.790491101008" y="641" transform="matrix(1.22059 0 0 1.05694 0 0) matrix(1 0 0 1 -277.377 -34.5336)">H12ESR02055_2012.6356164383562_Counties-Manukau</text><text x="1487.5809822020155" y="614.2916666666666" transform="matrix(1.22059 0 0 1.05694 0 0) matrix(1 0 0 1 -268.845 -33.0947)">VIR12680_2012.5397260273974_Bay-of-Plenty</text><text x="1526.6974324326125" y="587.5833333333334" transform="matrix(1.22059 0 0 1.05694 0 0) matrix(1 0 0 1 -275.914 -31.6558)">H12ESR01595_2012.6191780821919_Hutt-Valley</text><text x="1546.9300791035453" y="560.875" transform="matrix(1.22059 0 0 1.05694 0 0) matrix(1 0 0 1 -279.571 -30.2169)">H12ESR02548_2012.6602739726027_Counties-Manukau</text><text x="1530.7439617667544" y="534.1666666666666" transform="matrix(1.22059 0 0 1.05694 0 0) matrix(1 0 0 1 -276.646 -28.778)">H12ESR02787_2012.627397260274_Auckland</text><text x="1534.790491101008" y="507.45833333333337" transform="matrix(1.22059 0 0 1.05694 0 0) matrix(1 0 0 1 -277.377 -27.3391)">H12ESR01629_2012.6356164383562_Whanganui</text><text x="1532.0928048781348" y="480.75" transform="matrix(1.22059 0 0 1.05694 0 0) matrix(1 0 0 1 -276.889 -25.9002)">H12ESR02795_2012.6301369863013_Auckland</text><text x="1468.6971786423517" y="454.04166666666663" transform="matrix(1.22059 0 0 1.05694 0 0) matrix(1 0 0 1 -265.432 -24.4613)">HBI12539_2012.5013698630137_Auckland</text><text x="1515.9066875413437" y="427.33333333333337" transform="matrix(1.22059 0 0 1.05694 0 0) matrix(1 0 0 1 -273.964 -23.0224)">H12ESR01137_2012.5972602739726_Lakes</text><text x="1449.8133750827994" y="400.625" transform="matrix(1.22059 0 0 1.05694 0 0) matrix(1 0 0 1 -262.019 -21.5835)">VIR12465_2012.4630136986302_Capital-and-Coast</text><text x="1506.4647857615678" y="373.91666666666663" transform="matrix(1.22059 0 0 1.05694 0 0) matrix(1 0 0 1 -272.258 -20.1446)">H12ESR00732_2012.5780821917808_Capital-and-Coast</text><text x="1499.720570204553" y="347.20833333333337" transform="matrix(1.22059 0 0 1.05694 0 0) matrix(1 0 0 1 -271.039 -18.7057)">H12ESR01219_2012.5643835616438_Hutt-Valley</text><text x="1519.9532168755975" y="320.5" transform="matrix(1.22059 0 0 1.05694 0 0) matrix(1 0 0 1 -274.695 -17.2668)">H12ESR01998_2012.6054794520549_Canterbury</text><text x="1553.6742946605602" y="293.79166666666663" transform="matrix(1.22059 0 0 1.05694 0 0) matrix(1 0 0 1 -280.79 -15.8279)">H12ESR02253_2012.6739726027397_Whanganui</text><text x="1494.3251977589186" y="267.08333333333337" transform="matrix(1.22059 0 0 1.05694 0 0) matrix(1 0 0 1 -270.064 -14.389)">H12ESR00898_2012.5534246575342_Waikato</text><text x="1501.0694133159334" y="240.375" transform="matrix(1.22059 0 0 1.05694 0 0) matrix(1 0 0 1 -271.283 -12.9501)">H12ESR00823_2012.5671232876712_Counties-Manukau</text><text x="1532.0928048781345" y="213.66666666666663" transform="matrix(1.22059 0 0 1.05694 0 0) matrix(1 0 0 1 -276.889 -11.5112)">H12ESR01868_2012.6301369863013_MidCentral</text><text x="1522.6509030983586" y="186.95833333333337" transform="matrix(1.22059 0 0 1.05694 0 0) matrix(1 0 0 1 -275.183 -10.0723)">H12ESR02458_2012.6109589041096_Auckland</text><text x="1492.976354647538" y="160.25" transform="matrix(1.22059 0 0 1.05694 0 0) matrix(1 0 0 1 -269.82 -8.63339)">H12ESR00297_2012.5506849315068_Tairawhiti-(Gisborne)</text><text x="1555.0231377719406" y="133.54166666666663" transform="matrix(1.22059 0 0 1.05694 0 0) matrix(1 0 0 1 -281.033 -7.1945)">H12ESR02501_2012.676712328767_Bay-of-Plenty</text><text x="1563.1161964403361" y="106.83333333333339" transform="matrix(1.22059 0 0 1.05694 0 0) matrix(1 0 0 1 -282.496 -5.7556)">H12ESR02862_2012.6931506849314_Counties-Manukau</text><text x="1499.720570204553" y="80.125" transform="matrix(1.22059 0 0 1.05694 0 0) matrix(1 0 0 1 -271.039 -4.3167)">H12ESR00895_2012.5643835616438_Waikato</text><text x="1452.5110613055608" y="53.41666666666662" transform="matrix(1.22059 0 0 1.05694 0 0) matrix(1 0 0 1 -262.507 -2.8778)">VIR12466_2012.468493150685_Taranaki</text><text x="1487.5809822020155" y="26.708333333333382" transform="matrix(1.22059 0 0 1.05694 0 0) matrix(1 0 0 1 -268.845 -1.4389)">VIR12634_2012.5397260273974_Taranaki</text><text x="1447.1156888599264" y="0" transform="matrix(1.22059 0 0 1.05694 0 0) matrix(1 0 0 1 -261.532 0)">H12ESR00659_2012.4575342465753_Canterbury</text><text class="axisComponent" x="-7.794068336486816" y="940.3549194335938" transform="matrix(1.22059 0 0 1.05694 0 0) matrix(1 0 0 1 1.40859 -50.6612)">Location</text><rect x="-1.691102518595275" y="950.9243340217007" width="12.205931691243284" height="10.569422776911077" fill="#e50000" class="axisComponent"></rect><text class="axisComponent" x="22.720760863891293" y="961.4937567986118" fill="#e50000" transform="matrix(1.22059 0 0 1.05694 0 0) matrix(1 0 0 1 -4.10624 -51.8)">Auckland</text><rect x="-1.691102518595275" y="972.0631890021695" width="12.205931691243284" height="10.569422776911077" fill="#e5005b" class="axisComponent"></rect><text class="axisComponent" x="22.720760863891293" y="982.6326117790805" fill="#e5005b" transform="matrix(1.22059 0 0 1.05694 0 0) matrix(1 0 0 1 -4.10624 -52.9389)">Bay-of-Plenty</text><rect x="-1.691102518595275" y="993.2020439826382" width="12.205931691243284" height="10.569422776911077" fill="#e500b7" class="axisComponent"></rect><text class="axisComponent" x="22.720760863891293" y="1003.7714667595493" fill="#e500b7" transform="matrix(1.22059 0 0 1.05694 0 0) matrix(1 0 0 1 -4.10624 -54.0777)">Canterbury</text><rect x="-1.691102518595275" y="1014.340898963107" width="12.205931691243284" height="10.569422776911077" fill="#b700e5" class="axisComponent"></rect><text class="axisComponent" x="22.720760863891293" y="1024.910321740018" fill="#b700e5" transform="matrix(1.22059 0 0 1.05694 0 0) matrix(1 0 0 1 -4.10624 -55.2166)">Capital-and-Coast</text><rect x="-1.691102518595275" y="1035.4796929084196" width="12.205931691243284" height="10.569422776911077" fill="#5b00e5" class="axisComponent"></rect><text class="axisComponent" x="22.720760863891293" y="1046.0491156853304" fill="#5b00e5" transform="matrix(1.22059 0 0 1.05694 0 0) matrix(1 0 0 1 -4.10624 -56.3554)">Counties-Manukau</text><rect x="-1.691102518595275" y="1056.6186089240446" width="12.205931691243284" height="10.569422776911077" fill="#0000e5" class="axisComponent"></rect><text class="axisComponent" x="22.720760863891293" y="1067.1880317009554" fill="#0000e5" transform="matrix(1.22059 0 0 1.05694 0 0) matrix(1 0 0 1 -4.10624 -57.4943)">Hawkes-Bay</text><rect x="-1.691102518595275" y="1077.757402869357" width="12.205931691243284" height="10.569422776911077" fill="#005be5" class="axisComponent"></rect><text class="axisComponent" x="22.720760863891293" y="1088.326825646268" fill="#005be5" transform="matrix(1.22059 0 0 1.05694 0 0) matrix(1 0 0 1 -4.10624 -58.6331)">Hutt-Valley</text><rect x="-1.691102518595275" y="1098.8961968146696" width="12.205931691243284" height="10.569422776911077" fill="#00b7e5" class="axisComponent"></rect><text class="axisComponent" x="22.720760863891293" y="1109.4656195915804" fill="#00b7e5" transform="matrix(1.22059 0 0 1.05694 0 0) matrix(1 0 0 1 -4.10624 -59.7719)">Lakes</text><rect x="-1.691102518595275" y="1120.0351128302946" width="12.205931691243284" height="10.569422776911077" fill="#00997a" class="axisComponent"></rect><text class="axisComponent" x="22.720760863891293" y="1130.6045356072054" fill="#00997a" transform="matrix(1.22059 0 0 1.05694 0 0) matrix(1 0 0 1 -4.10624 -60.9108)">MidCentral</text><rect x="-1.691102518595275" y="1141.173906775607" width="12.205931691243284" height="10.569422776911077" fill="#00993d" class="axisComponent"></rect><text class="axisComponent" x="22.720760863891293" y="1151.743329552518" fill="#00993d" transform="matrix(1.22059 0 0 1.05694 0 0) matrix(1 0 0 1 -4.10624 -62.0496)">Nelson-Marlborough</text><rect x="-1.691102518595275" y="1162.312822791232" width="12.205931691243284" height="10.569422776911077" fill="#009900" class="axisComponent"></rect><text class="axisComponent" x="22.720760863891293" y="1172.882245568143" fill="#009900" transform="matrix(1.22059 0 0 1.05694 0 0) matrix(1 0 0 1 -4.10624 -63.1885)">Southern</text><rect x="-1.691102518595275" y="1183.4516167365446" width="12.205931691243284" height="10.569422776911077" fill="#3d9900" class="axisComponent"></rect><text class="axisComponent" x="22.720760863891293" y="1194.0210395134554" fill="#3d9900" transform="matrix(1.22059 0 0 1.05694 0 0) matrix(1 0 0 1 -4.10624 -64.3273)">Tairawhiti-(Gisborne)</text><rect x="-1.691102518595275" y="1204.5905327521696" width="12.205931691243284" height="10.569422776911077" fill="#7a9900" class="axisComponent"></rect><text class="axisComponent" x="22.720760863891293" y="1215.1599555290804" fill="#7a9900" transform="matrix(1.22059 0 0 1.05694 0 0) matrix(1 0 0 1 -4.10624 -65.4662)">Taranaki</text><rect x="-1.691102518595275" y="1225.729326697482" width="12.205931691243284" height="10.569422776911077" fill="#997a00" class="axisComponent"></rect><text class="axisComponent" x="22.720760863891293" y="1236.298749474393" fill="#997a00" transform="matrix(1.22059 0 0 1.05694 0 0) matrix(1 0 0 1 -4.10624 -66.605)">Waikato</text><rect x="-1.691102518595275" y="1246.8681206427946" width="12.205931691243284" height="10.569422776911077" fill="#e55b00" class="axisComponent"></rect><text class="axisComponent" x="22.720760863891293" y="1257.4375434197054" fill="#e55b00" transform="matrix(1.22059 0 0 1.05694 0 0) matrix(1 0 0 1 -4.10624 -67.7439)">Whanganui</text></svg>